<?xml version="1.0" encoding="UTF-8"?>
<svg id="Layer_2" data-name="Layer 2" xmlns="http://www.w3.org/2000/svg" viewBox="0 0 87.11 65.11">
  <defs>
    <style>
      .cls-1 {
        fill: #2663eb;
      }
    </style>
  </defs>
  <g id="Layer_1-2" data-name="Layer 1">
    <path class="cls-1" d="M29.75,21.75c-.93-1.97-1.46-4.16-1.46-6.49,0-8.43,6.83-15.26,15.26-15.26s15.26,6.83,15.26,15.26c0,2.32-.53,4.52-1.46,6.49l-10.43-10.43c-1.86-1.86-4.88-1.86-6.74,0l-10.43,10.43ZM73.45,37.85c1.86,1.86,1.86,4.88,0,6.74l-4.53,4.53c8.07-.4,14.5-7.05,14.5-15.22s-6.83-15.26-15.26-15.26c-3.87,0-7.4,1.45-10.09,3.83l15.38,15.38ZM76.06,49.16h-7.19l-15.96,15.96h34.19v-4.91c0-6.1-4.95-11.05-11.05-11.05ZM11.05,49.16c-6.1,0-11.05,4.95-11.05,11.05v4.91h34.17l-15.96-15.96h-7.17ZM18.18,49.12l-4.53-4.53c-1.86-1.86-1.86-4.88,0-6.74l15.38-15.38c-2.69-2.38-6.22-3.83-10.09-3.83-8.43,0-15.26,6.83-15.26,15.26s6.43,14.82,14.5,15.22ZM43.4,47.87c-3.2,0-5.8,2.6-5.8,5.8s2.6,5.8,5.8,5.8c3.2,0,5.8-2.6,5.8-5.8s-2.6-5.8-5.8-5.8ZM29.98,34.44c-3.2,0-5.8,2.6-5.8,5.8s2.6,5.8,5.8,5.8,5.8-2.6,5.8-5.8-2.6-5.8-5.8-5.8ZM57.12,45.75c3.2,0,5.8-2.6,5.8-5.8s-2.6-5.8-5.8-5.8-5.8,2.6-5.8,5.8,2.6,5.8,5.8,5.8ZM43.7,20.72c-3.2,0-5.8,2.6-5.8,5.8s2.6,5.8,5.8,5.8,5.8-2.6,5.8-5.8-2.6-5.8-5.8-5.8Z"/>
  </g>
</svg>