<?xml version="1.0" encoding="UTF-8"?>
<svg id="Layer_2" data-name="Layer 2" xmlns="http://www.w3.org/2000/svg" viewBox="0 0 101.37 101.37">
  <defs>
    <style>
      .cls-1 {
        fill: #fff;
      }

      .cls-2 {
        fill: #2663eb;
      }
    </style>
  </defs>
  <g id="Layer_1-2" data-name="Layer 1">
    <rect class="cls-2" width="101.37" height="101.37" rx="16.09" ry="16.09"/>
    <path class="cls-1" d="M38.06,37.3c-.85-1.8-1.34-3.81-1.34-5.93,0-7.71,6.25-13.97,13.97-13.97s13.97,6.25,13.97,13.97c0,2.13-.49,4.13-1.34,5.93l-9.54-9.54c-1.7-1.7-4.46-1.7-6.17,0l-9.54,9.54ZM78.04,52.04c1.7,1.7,1.7,4.46,0,6.17l-4.14,4.14c7.38-.37,13.26-6.45,13.26-13.93s-6.25-13.97-13.97-13.97c-3.54,0-6.77,1.33-9.23,3.51l14.08,14.08ZM80.44,62.38h-6.58l-14.6,14.6h31.29v-4.49c0-5.58-4.53-10.11-10.11-10.11ZM20.95,62.38c-5.58,0-10.11,4.53-10.11,10.11v4.49h31.27l-14.6-14.6h-6.56ZM27.47,62.35l-4.14-4.14c-1.7-1.7-1.7-4.46,0-6.17l14.08-14.08c-2.46-2.17-5.69-3.51-9.23-3.51-7.71,0-13.97,6.25-13.97,13.97s5.88,13.56,13.26,13.93ZM50.55,61.2c-2.93,0-5.31,2.38-5.31,5.31s2.38,5.31,5.31,5.31c2.93,0,5.31-2.38,5.31-5.31s-2.38-5.31-5.31-5.31ZM38.27,48.92c-2.93,0-5.31,2.38-5.31,5.31s2.38,5.31,5.31,5.31,5.31-2.38,5.31-5.31-2.38-5.31-5.31-5.31ZM63.1,59.26c2.93,0,5.31-2.38,5.31-5.31s-2.38-5.31-5.31-5.31-5.31,2.38-5.31,5.31,2.38,5.31,5.31,5.31ZM50.82,36.37c-2.93,0-5.31,2.38-5.31,5.31s2.38,5.31,5.31,5.31,5.31-2.38,5.31-5.31-2.38-5.31-5.31-5.31Z"/>
  </g>
</svg>