<?xml version="1.0" encoding="UTF-8"?>
<svg id="Layer_2" data-name="Layer 2" xmlns="http://www.w3.org/2000/svg" viewBox="0 0 1200 630">
  <defs>
    <style>
      .cls-1 {
        fill: #171717;
      }

      .cls-2 {
        fill: #3b82f6;
      }

      .cls-3 {
        fill: #fff;
      }

      .cls-4 {
        fill: #2663eb;
      }

      .cls-5 {
        fill: #9e9e9e;
      }
    </style>
  </defs>
  <g id="Layer_1-2" data-name="Layer 1">
    <rect class="cls-1" width="1200" height="630"/>
    <g>
      <path class="cls-4" d="M288.29,264.94c-1.51-3.2-2.37-6.76-2.37-10.53,0-13.68,11.09-24.78,24.78-24.78s24.78,11.09,24.78,24.78c0,3.77-.87,7.33-2.37,10.53l-16.93-16.93c-3.02-3.02-7.92-3.02-10.94,0l-16.93,16.93ZM359.23,291.08c3.02,3.02,3.02,7.92,0,10.94l-7.35,7.35c13.1-.65,23.53-11.45,23.53-24.71s-11.09-24.78-24.78-24.78c-6.29,0-12.01,2.36-16.38,6.22l24.97,24.97ZM363.48,309.44h-11.67l-25.91,25.91h55.51v-7.97c0-9.9-8.03-17.93-17.93-17.93ZM257.94,309.44c-9.9,0-17.93,8.03-17.93,17.93v7.97h55.48l-25.91-25.91h-11.64ZM269.51,309.38l-7.35-7.35c-3.02-3.02-3.02-7.92,0-10.94l24.97-24.98c-4.37-3.86-10.09-6.22-16.38-6.22-13.68,0-24.78,11.09-24.78,24.78s10.43,24.06,23.53,24.71ZM310.45,307.35c-5.2,0-9.42,4.22-9.42,9.42s4.22,9.42,9.42,9.42c5.2,0,9.42-4.22,9.42-9.42s-4.22-9.42-9.42-9.42ZM288.66,285.56c-5.2,0-9.42,4.22-9.42,9.42s4.22,9.42,9.42,9.42,9.42-4.22,9.42-9.42-4.22-9.42-9.42-9.42ZM332.73,303.9c5.2,0,9.42-4.22,9.42-9.42s-4.22-9.42-9.42-9.42-9.42,4.22-9.42,9.42,4.22,9.42,9.42,9.42ZM310.94,263.28c-5.2,0-9.42,4.22-9.42,9.42s4.22,9.42,9.42,9.42,9.42-4.22,9.42-9.42-4.22-9.42-9.42-9.42Z"/>
      <g>
        <path class="cls-3" d="M430.1,329.3c-5.19,0-9.8-.92-13.83-2.77-4.03-1.84-7.17-4.47-9.43-7.89-2.25-3.41-3.42-7.48-3.48-12.19h13.01c0,2.39.56,4.53,1.69,6.4,1.13,1.88,2.7,3.37,4.71,4.46,2.01,1.09,4.46,1.64,7.33,1.64,2.46,0,4.59-.39,6.4-1.18,1.81-.78,3.21-1.91,4.2-3.38.99-1.47,1.49-3.19,1.49-5.17,0-2.25-.53-4.11-1.59-5.58-1.06-1.47-2.51-2.72-4.35-3.74s-3.96-1.93-6.35-2.72c-2.39-.78-4.92-1.62-7.58-2.51-5.67-1.91-9.94-4.35-12.81-7.33-2.87-2.97-4.3-6.95-4.3-11.94,0-4.17.99-7.75,2.97-10.76,1.98-3,4.77-5.34,8.35-7.02,3.59-1.67,7.74-2.51,12.45-2.51s8.97.85,12.55,2.56c3.59,1.71,6.42,4.08,8.5,7.12,2.08,3.04,3.16,6.68,3.23,10.91h-13.12c-.07-1.78-.55-3.43-1.43-4.97-.89-1.54-2.17-2.8-3.84-3.79-1.67-.99-3.71-1.49-6.1-1.49-2.05-.07-3.88.26-5.48.97-1.61.72-2.87,1.74-3.79,3.07-.92,1.33-1.38,2.99-1.38,4.97s.43,3.5,1.28,4.77c.85,1.26,2.1,2.32,3.74,3.18,1.64.86,3.55,1.66,5.74,2.41,2.18.75,4.58,1.57,7.17,2.46,3.55,1.16,6.78,2.58,9.68,4.25,2.9,1.67,5.21,3.84,6.92,6.51,1.71,2.66,2.56,6.11,2.56,10.35,0,3.69-.96,7.12-2.87,10.3-1.91,3.18-4.71,5.74-8.4,7.68-3.69,1.95-8.3,2.92-13.83,2.92Z"/>
        <path class="cls-3" d="M504.55,350.62v-30.02c-1.64,2.46-3.88,4.53-6.71,6.2-2.84,1.67-6.3,2.51-10.4,2.51-4.85,0-9.15-1.18-12.91-3.53-3.76-2.36-6.69-5.57-8.81-9.63-2.12-4.06-3.18-8.69-3.18-13.88s1.06-9.82,3.18-13.88c2.12-4.06,5.07-7.28,8.86-9.63,3.79-2.36,8.08-3.54,12.86-3.54,2.66,0,5.07.36,7.22,1.08,2.15.72,4.05,1.71,5.69,2.97,1.64,1.26,3.04,2.75,4.2,4.46l1.23-7.28h11.07v74.18h-12.3ZM489.79,318.65c2.94,0,5.53-.7,7.79-2.1,2.25-1.4,4-3.33,5.23-5.79,1.23-2.46,1.84-5.29,1.84-8.5s-.61-6.13-1.84-8.56c-1.23-2.42-2.97-4.32-5.23-5.69-2.25-1.37-4.85-2.05-7.79-2.05s-5.33.68-7.58,2.05c-2.25,1.37-4.01,3.28-5.28,5.74-1.26,2.46-1.9,5.29-1.9,8.5s.63,6.05,1.9,8.5c1.26,2.46,3.02,4.39,5.28,5.79,2.25,1.4,4.78,2.1,7.58,2.1Z"/>
        <path class="cls-3" d="M548.51,329.3c-4.17,0-7.74-.84-10.71-2.51-2.97-1.67-5.24-4.2-6.81-7.58-1.57-3.38-2.36-7.56-2.36-12.55v-30.23h12.3v29c0,4.44.94,7.8,2.82,10.09,1.88,2.29,4.73,3.43,8.56,3.43,2.46,0,4.66-.58,6.61-1.74,1.95-1.16,3.48-2.85,4.61-5.07,1.13-2.22,1.69-4.93,1.69-8.15v-27.56h12.3v51.64h-10.86l-.92-8.61c-1.57,3.01-3.84,5.4-6.81,7.17-2.97,1.78-6.44,2.66-10.4,2.66Z"/>
        <path class="cls-3" d="M606.58,329.3c-4.24,0-7.75-.72-10.55-2.15-2.8-1.44-4.88-3.35-6.25-5.74-1.37-2.39-2.05-4.99-2.05-7.79,0-3.28.84-6.11,2.51-8.5,1.67-2.39,4.15-4.25,7.43-5.58,3.28-1.33,7.31-2,12.09-2h13.01c0-2.73-.38-5-1.13-6.81-.75-1.81-1.91-3.16-3.48-4.05-1.57-.89-3.59-1.33-6.05-1.33-2.8,0-5.19.63-7.17,1.9-1.98,1.27-3.21,3.19-3.69,5.79h-12.09c.41-3.69,1.64-6.85,3.69-9.48,2.05-2.63,4.76-4.68,8.15-6.15,3.38-1.47,7.09-2.2,11.12-2.2,4.85,0,8.98.84,12.4,2.51,3.41,1.67,6.03,4.07,7.84,7.17,1.81,3.11,2.72,6.85,2.72,11.22v31.97h-10.45l-1.23-8.3c-.68,1.37-1.55,2.63-2.61,3.79-1.06,1.16-2.27,2.17-3.64,3.02-1.37.85-2.92,1.52-4.66,2-1.74.48-3.71.72-5.89.72ZM609.35,319.57c1.98,0,3.74-.36,5.28-1.08,1.54-.72,2.87-1.74,4-3.07s2-2.82,2.61-4.46c.62-1.64,1.02-3.38,1.23-5.23v-.2h-11.37c-2.39,0-4.37.31-5.94.92-1.57.61-2.7,1.45-3.38,2.51-.68,1.06-1.02,2.31-1.02,3.74s.34,2.66,1.02,3.69c.68,1.02,1.67,1.81,2.97,2.36,1.3.55,2.83.82,4.61.82Z"/>
        <path class="cls-3" d="M669.31,329.3c-4.78,0-9.05-1.16-12.81-3.48-3.76-2.32-6.68-5.53-8.76-9.63-2.08-4.1-3.12-8.74-3.12-13.94s1.06-9.82,3.18-13.88c2.12-4.06,5.07-7.28,8.86-9.63,3.79-2.36,8.08-3.54,12.86-3.54,3.89,0,7.29.73,10.19,2.2,2.9,1.47,5.21,3.54,6.92,6.2v-29.3h12.3v73.77h-11.07l-1.23-7.48c-1.09,1.5-2.43,2.92-4,4.25s-3.45,2.41-5.63,3.23c-2.19.82-4.75,1.23-7.68,1.23ZM671.87,318.65c2.94,0,5.53-.7,7.79-2.1,2.25-1.4,4-3.33,5.23-5.79,1.23-2.46,1.84-5.29,1.84-8.5s-.61-6.05-1.84-8.5c-1.23-2.46-2.97-4.37-5.23-5.74-2.25-1.37-4.85-2.05-7.79-2.05s-5.33.68-7.58,2.05c-2.25,1.37-4.01,3.28-5.28,5.74-1.26,2.46-1.9,5.29-1.9,8.5s.63,6.05,1.9,8.5c1.26,2.46,3.02,4.39,5.28,5.79,2.25,1.4,4.78,2.1,7.58,2.1Z"/>
        <path class="cls-2" d="M744.56,329.3c-6.9,0-13-1.55-18.29-4.66-5.29-3.11-9.44-7.44-12.45-13.01-3.01-5.57-4.51-12.04-4.51-19.42s1.5-13.75,4.51-19.31c3-5.57,7.15-9.92,12.45-13.06,5.29-3.14,11.39-4.71,18.29-4.71s13.22,1.57,18.55,4.71c5.33,3.14,9.46,7.5,12.4,13.06,2.94,5.57,4.41,12.01,4.41,19.31s-1.47,13.85-4.41,19.42c-2.94,5.57-7.07,9.91-12.4,13.01-5.33,3.11-11.51,4.66-18.55,4.66ZM744.66,318.24c4.58,0,8.57-1.04,11.99-3.12,3.41-2.08,6.05-5.07,7.89-8.97,1.84-3.89,2.77-8.54,2.77-13.94s-.92-10.04-2.77-13.94c-1.84-3.89-4.47-6.88-7.89-8.97-3.42-2.08-7.41-3.12-11.99-3.12s-8.57,1.04-11.99,3.12c-3.42,2.08-6.06,5.07-7.94,8.97-1.88,3.89-2.82,8.54-2.82,13.94s.94,10.04,2.82,13.94c1.88,3.89,4.52,6.88,7.94,8.97,3.41,2.08,7.41,3.12,11.99,3.12Z"/>
        <path class="cls-2" d="M812.21,329.3c-4.78,0-9.05-1.16-12.81-3.48-3.76-2.32-6.68-5.53-8.76-9.63-2.08-4.1-3.12-8.74-3.12-13.94s1.06-9.82,3.18-13.88c2.12-4.06,5.07-7.28,8.86-9.63,3.79-2.36,8.08-3.54,12.86-3.54,3.89,0,7.29.73,10.19,2.2,2.9,1.47,5.21,3.54,6.92,6.2v-29.3h12.3v73.77h-11.07l-1.23-7.48c-1.09,1.5-2.43,2.92-4,4.25s-3.45,2.41-5.63,3.23c-2.19.82-4.75,1.23-7.68,1.23ZM814.77,318.65c2.94,0,5.53-.7,7.79-2.1,2.25-1.4,4-3.33,5.23-5.79,1.23-2.46,1.84-5.29,1.84-8.5s-.61-6.05-1.84-8.5c-1.23-2.46-2.97-4.37-5.23-5.74-2.25-1.37-4.85-2.05-7.79-2.05s-5.33.68-7.58,2.05c-2.25,1.37-4.01,3.28-5.28,5.74-1.26,2.46-1.9,5.29-1.9,8.5s.63,6.05,1.9,8.5c1.26,2.46,3.02,4.39,5.28,5.79,2.25,1.4,4.78,2.1,7.58,2.1Z"/>
        <path class="cls-2" d="M876.54,329.3c-4.78,0-9.05-1.16-12.81-3.48-3.76-2.32-6.68-5.53-8.76-9.63-2.08-4.1-3.12-8.74-3.12-13.94s1.06-9.82,3.18-13.88c2.12-4.06,5.07-7.28,8.86-9.63,3.79-2.36,8.08-3.54,12.86-3.54,3.89,0,7.29.73,10.19,2.2,2.9,1.47,5.21,3.54,6.92,6.2v-29.3h12.3v73.77h-11.07l-1.23-7.48c-1.09,1.5-2.43,2.92-4,4.25s-3.45,2.41-5.63,3.23c-2.19.82-4.75,1.23-7.68,1.23ZM879.1,318.65c2.94,0,5.53-.7,7.79-2.1,2.25-1.4,4-3.33,5.23-5.79,1.23-2.46,1.84-5.29,1.84-8.5s-.61-6.05-1.84-8.5c-1.23-2.46-2.97-4.37-5.23-5.74-2.25-1.37-4.85-2.05-7.79-2.05s-5.33.68-7.58,2.05c-2.25,1.37-4.01,3.28-5.28,5.74-1.26,2.46-1.9,5.29-1.9,8.5s.63,6.05,1.9,8.5c1.26,2.46,3.02,4.39,5.28,5.79,2.25,1.4,4.78,2.1,7.58,2.1Z"/>
        <path class="cls-2" d="M938.89,329.3c-4.58,0-8.56-.73-11.94-2.2-3.38-1.47-6.05-3.52-7.99-6.15-1.95-2.63-3.09-5.65-3.43-9.07h12.3c.34,1.43.96,2.75,1.84,3.94.89,1.2,2.1,2.14,3.64,2.82,1.54.68,3.36,1.02,5.48,1.02s3.72-.29,5.02-.87c1.3-.58,2.25-1.35,2.87-2.31.61-.96.92-1.98.92-3.07,0-1.64-.45-2.9-1.33-3.79-.89-.89-2.17-1.59-3.84-2.1-1.67-.51-3.67-1.01-5.99-1.49-2.46-.48-4.83-1.08-7.12-1.79-2.29-.72-4.34-1.62-6.15-2.72-1.81-1.09-3.25-2.49-4.3-4.2-1.06-1.71-1.59-3.79-1.59-6.25,0-3,.8-5.7,2.41-8.1,1.6-2.39,3.93-4.29,6.97-5.69,3.04-1.4,6.68-2.1,10.91-2.1,6.01,0,10.81,1.38,14.4,4.15,3.59,2.77,5.69,6.64,6.3,11.63h-11.68c-.34-1.91-1.3-3.4-2.87-4.46-1.57-1.06-3.66-1.59-6.25-1.59s-4.7.5-6.1,1.49c-1.4.99-2.1,2.31-2.1,3.94,0,1.09.43,2.05,1.28,2.87.85.82,2.1,1.52,3.74,2.1,1.64.58,3.65,1.15,6.05,1.69,3.83.75,7.21,1.64,10.14,2.66,2.94,1.02,5.26,2.53,6.97,4.51,1.71,1.98,2.56,4.78,2.56,8.4.07,3.28-.77,6.18-2.51,8.71-1.74,2.53-4.18,4.49-7.33,5.89-3.14,1.4-6.9,2.1-11.27,2.1Z"/>
      </g>
    </g>
    <g>
      <path class="cls-5" d="M389.5,402.3c-2.94,0-5.48-.66-7.63-1.97-2.15-1.31-3.8-3.14-4.95-5.49-1.15-2.35-1.73-5.08-1.73-8.19s.58-5.84,1.73-8.19c1.15-2.35,2.8-4.18,4.95-5.49,2.15-1.31,4.69-1.97,7.63-1.97,3.46,0,6.27.82,8.43,2.46,2.16,1.64,3.55,3.96,4.15,6.96h-4.02c-.46-1.87-1.4-3.38-2.81-4.52-1.41-1.14-3.33-1.71-5.75-1.71-2.13,0-4,.5-5.6,1.49-1.6.99-2.83,2.42-3.7,4.28-.86,1.86-1.3,4.09-1.3,6.68s.43,4.82,1.3,6.68c.87,1.86,2.1,3.29,3.7,4.28,1.6,1,3.47,1.49,5.6,1.49,2.42,0,4.34-.55,5.75-1.67,1.41-1.11,2.35-2.59,2.81-4.43h4.02c-.6,2.91-1.99,5.19-4.15,6.83-2.16,1.64-4.97,2.46-8.43,2.46Z"/>
      <path class="cls-5" d="M413.45,402.3c-1.76,0-3.23-.31-4.41-.93-1.18-.62-2.06-1.44-2.64-2.46-.58-1.02-.87-2.14-.87-3.35,0-1.47.38-2.72,1.15-3.74s1.84-1.8,3.24-2.33c1.4-.53,3.05-.8,4.95-.8h5.75c0-1.35-.21-2.49-.63-3.39s-1.02-1.59-1.82-2.05c-.79-.46-1.78-.69-2.96-.69-1.38,0-2.58.35-3.59,1.04-1.01.69-1.63,1.72-1.86,3.07h-3.72c.17-1.56.7-2.86,1.58-3.91.88-1.05,2-1.86,3.35-2.42,1.35-.56,2.77-.84,4.24-.84,2.02,0,3.7.37,5.04,1.1,1.34.74,2.34,1.76,3,3.07s.99,2.86.99,4.65v13.49h-3.24l-.22-3.85c-.29.6-.66,1.17-1.1,1.71-.45.53-.97,1-1.56,1.38-.59.39-1.28.7-2.05.93s-1.66.35-2.64.35ZM414.01,399.23c1.01,0,1.92-.21,2.75-.63.82-.42,1.52-1,2.1-1.73.58-.74,1.02-1.55,1.32-2.44.3-.89.45-1.83.45-2.81v-.13h-5.45c-1.41,0-2.55.17-3.42.5-.87.33-1.49.79-1.86,1.38-.38.59-.56,1.26-.56,2.01s.18,1.46.54,2.03c.36.58.89,1.02,1.6,1.34.71.32,1.55.48,2.53.48Z"/>
      <path class="cls-5" d="M429.55,401.78v-31.13h3.63v31.13h-3.63Z"/>
      <path class="cls-5" d="M438.68,401.78v-31.13h3.63v31.13h-3.63Z"/>
      <path class="cls-5" d="M461.56,375.36c-.72,0-1.32-.24-1.79-.71s-.71-1.07-.71-1.79.24-1.3.71-1.75,1.07-.67,1.79-.67,1.28.22,1.77.67.74,1.03.74,1.75-.25,1.32-.74,1.79-1.08.71-1.77.71ZM459.74,401.78v-21.79h3.63v21.79h-3.63Z"/>
      <path class="cls-5" d="M477.32,401.78c-1.3,0-2.42-.2-3.37-.61-.95-.4-1.68-1.09-2.18-2.05s-.76-2.27-.76-3.91v-12.15h-3.81v-3.07h3.81l.48-5.27h3.16v5.27h6.31v3.07h-6.31v12.15c0,1.36.27,2.27.82,2.75.55.48,1.51.71,2.9.71h2.33v3.11h-3.37Z"/>
      <path class="cls-5" d="M481.68,390.54v-3.07h31.48v3.07h-31.48Z"/>
      <path class="cls-5" d="M529.36,402.3c-1.24,0-2.36-.18-3.35-.54-1-.36-1.87-.84-2.62-1.45-.75-.61-1.37-1.31-1.86-2.12l-.3,3.59h-3.29v-31.13h3.63v12.93c.69-1.12,1.69-2.09,2.98-2.9,1.3-.81,2.9-1.21,4.8-1.21,2.13,0,3.98.5,5.56,1.49,1.57,1,2.8,2.35,3.68,4.06.88,1.72,1.32,3.67,1.32,5.86s-.44,4.15-1.32,5.88c-.88,1.73-2.11,3.08-3.7,4.06-1.59.98-3.43,1.47-5.53,1.47ZM528.93,399.14c1.44,0,2.71-.35,3.8-1.04,1.1-.69,1.95-1.65,2.57-2.88.62-1.22.93-2.67.93-4.34s-.31-3.08-.93-4.32c-.62-1.24-1.48-2.21-2.57-2.9-1.1-.69-2.36-1.04-3.8-1.04s-2.71.35-3.8,1.04c-1.1.69-1.95,1.66-2.55,2.9-.61,1.24-.91,2.68-.91,4.32s.3,3.12.91,4.34c.61,1.23,1.46,2.18,2.55,2.88,1.09.69,2.36,1.04,3.8,1.04Z"/>
      <path class="cls-5" d="M553.92,402.3c-2.02,0-3.82-.48-5.4-1.43-1.59-.95-2.83-2.28-3.72-4s-1.34-3.71-1.34-5.99.44-4.31,1.32-6.01c.88-1.7,2.12-3.03,3.72-3.98,1.6-.95,3.44-1.43,5.51-1.43s3.95.48,5.45,1.43,2.64,2.2,3.44,3.74,1.19,3.24,1.19,5.08v.91c0,.32-.01.68-.04,1.08h-17.86v-2.81h14.31c-.09-1.99-.74-3.55-1.97-4.67s-2.76-1.69-4.6-1.69c-1.21,0-2.35.28-3.42.84-1.07.56-1.92,1.38-2.55,2.46-.63,1.08-.95,2.43-.95,4.04v1.21c0,1.79.32,3.29.97,4.5.65,1.21,1.5,2.12,2.55,2.72,1.05.61,2.18.91,3.39.91,1.53,0,2.79-.34,3.78-1.02.99-.68,1.72-1.61,2.18-2.79h3.59c-.38,1.33-.99,2.5-1.86,3.52-.86,1.02-1.94,1.84-3.22,2.44-1.28.6-2.78.91-4.48.91Z"/>
      <path class="cls-5" d="M565.97,383.06v-3.07h12.45v3.07h-12.45ZM569.3,401.78v-25.16c0-1.38.23-2.51.69-3.39.46-.88,1.15-1.53,2.05-1.95.91-.42,2.03-.63,3.35-.63h2.46v3.11h-1.9c-1.07,0-1.84.22-2.31.65s-.71,1.2-.71,2.29v25.08h-3.63Z"/>
      <path class="cls-5" d="M591.1,402.3c-2.02,0-3.83-.47-5.45-1.41-1.62-.94-2.88-2.26-3.81-3.98-.92-1.71-1.38-3.71-1.38-5.99s.47-4.36,1.41-6.08c.94-1.71,2.22-3.04,3.85-3.98,1.63-.94,3.45-1.41,5.47-1.41s3.91.47,5.51,1.41,2.87,2.26,3.8,3.98c.94,1.72,1.41,3.73,1.41,6.03s-.48,4.32-1.43,6.03c-.95,1.72-2.23,3.04-3.85,3.98-1.61.94-3.46,1.41-5.53,1.41ZM591.15,399.18c1.24,0,2.39-.31,3.46-.93s1.93-1.55,2.59-2.79.99-2.77.99-4.58-.32-3.38-.97-4.61c-.65-1.22-1.5-2.15-2.55-2.77-1.05-.62-2.21-.93-3.48-.93s-2.36.31-3.44.93-1.95,1.54-2.59,2.77c-.65,1.23-.97,2.76-.97,4.61s.32,3.34.97,4.58,1.5,2.17,2.55,2.79c1.05.62,2.2.93,3.44.93Z"/>
      <path class="cls-5" d="M606.39,401.78v-21.79h3.29l.26,4.15c.49-.98,1.12-1.82,1.88-2.51.76-.69,1.69-1.22,2.77-1.6,1.08-.38,2.31-.56,3.7-.56v3.8h-1.34c-.92,0-1.8.12-2.64.37-.84.25-1.58.64-2.23,1.19-.65.55-1.15,1.29-1.51,2.23-.36.94-.54,2.1-.54,3.48v11.24h-3.63Z"/>
      <path class="cls-5" d="M630.88,402.3c-2.02,0-3.82-.48-5.4-1.43-1.59-.95-2.83-2.28-3.72-4s-1.34-3.71-1.34-5.99.44-4.31,1.32-6.01c.88-1.7,2.12-3.03,3.72-3.98,1.6-.95,3.44-1.43,5.51-1.43s3.95.48,5.45,1.43,2.64,2.2,3.44,3.74,1.19,3.24,1.19,5.08v.91c0,.32-.01.68-.04,1.08h-17.86v-2.81h14.31c-.09-1.99-.74-3.55-1.97-4.67s-2.76-1.69-4.6-1.69c-1.21,0-2.35.28-3.42.84-1.07.56-1.92,1.38-2.55,2.46-.63,1.08-.95,2.43-.95,4.04v1.21c0,1.79.32,3.29.97,4.5.65,1.21,1.5,2.12,2.55,2.72,1.05.61,2.18.91,3.39.91,1.53,0,2.79-.34,3.78-1.02.99-.68,1.72-1.61,2.18-2.79h3.59c-.38,1.33-.99,2.5-1.86,3.52-.86,1.02-1.94,1.84-3.22,2.44-1.28.6-2.78.91-4.48.91Z"/>
      <path class="cls-5" d="M656.96,401.78v-31.13h3.63v31.13h-3.63Z"/>
      <path class="cls-5" d="M668.09,375.36c-.72,0-1.32-.24-1.79-.71s-.71-1.07-.71-1.79.24-1.3.71-1.75,1.07-.67,1.79-.67,1.28.22,1.77.67.74,1.03.74,1.75-.25,1.32-.74,1.79-1.08.71-1.77.71ZM666.28,401.78v-21.79h3.63v21.79h-3.63Z"/>
      <path class="cls-5" d="M673.48,383.06v-3.07h12.45v3.07h-12.45ZM676.81,401.78v-25.16c0-1.38.23-2.51.69-3.39.46-.88,1.15-1.53,2.05-1.95.91-.42,2.03-.63,3.35-.63h2.46v3.11h-1.9c-1.07,0-1.84.22-2.31.65s-.71,1.2-.71,2.29v25.08h-3.63Z"/>
      <path class="cls-5" d="M698.5,402.3c-2.02,0-3.82-.48-5.4-1.43-1.59-.95-2.83-2.28-3.72-4s-1.34-3.71-1.34-5.99.44-4.31,1.32-6.01c.88-1.7,2.12-3.03,3.72-3.98,1.6-.95,3.44-1.43,5.51-1.43s3.95.48,5.45,1.43,2.64,2.2,3.44,3.74,1.19,3.24,1.19,5.08v.91c0,.32-.01.68-.04,1.08h-17.86v-2.81h14.31c-.09-1.99-.74-3.55-1.97-4.67s-2.76-1.69-4.6-1.69c-1.21,0-2.35.28-3.42.84-1.07.56-1.92,1.38-2.55,2.46-.63,1.08-.95,2.43-.95,4.04v1.21c0,1.79.32,3.29.97,4.5.65,1.21,1.5,2.12,2.55,2.72,1.05.61,2.18.91,3.39.91,1.53,0,2.79-.34,3.78-1.02.99-.68,1.72-1.61,2.18-2.79h3.59c-.38,1.33-.99,2.5-1.86,3.52-.86,1.02-1.94,1.84-3.22,2.44-1.28.6-2.78.91-4.48.91Z"/>
      <path class="cls-5" d="M734.22,402.3c-2.1,0-3.96-.5-5.56-1.49-1.6-1-2.83-2.36-3.7-4.09-.87-1.73-1.3-3.69-1.3-5.88s.43-4.14,1.3-5.86c.86-1.71,2.1-3.06,3.7-4.04,1.6-.98,3.47-1.47,5.6-1.47,1.76,0,3.31.36,4.65,1.08,1.34.72,2.39,1.73,3.13,3.03v-12.93h3.63v31.13h-3.29l-.35-3.59c-.46.72-1.05,1.39-1.77,2.01-.72.62-1.58,1.12-2.57,1.51-1,.39-2.16.58-3.48.58ZM734.6,399.14c1.44,0,2.71-.35,3.8-1.04,1.1-.69,1.95-1.65,2.57-2.88.62-1.22.93-2.67.93-4.34s-.31-3.08-.93-4.32c-.62-1.24-1.48-2.21-2.57-2.9-1.1-.69-2.36-1.04-3.8-1.04s-2.63.35-3.74,1.04c-1.11.69-1.97,1.66-2.57,2.9-.61,1.24-.91,2.68-.91,4.32s.3,3.12.91,4.34c.61,1.23,1.46,2.18,2.57,2.88,1.11.69,2.36,1.04,3.74,1.04Z"/>
      <path class="cls-5" d="M760.85,402.3c-2.02,0-3.83-.47-5.45-1.41-1.62-.94-2.88-2.26-3.81-3.98-.92-1.71-1.38-3.71-1.38-5.99s.47-4.36,1.41-6.08c.94-1.71,2.22-3.04,3.85-3.98,1.63-.94,3.45-1.41,5.47-1.41s3.91.47,5.51,1.41,2.87,2.26,3.8,3.98c.94,1.72,1.41,3.73,1.41,6.03s-.48,4.32-1.43,6.03c-.95,1.72-2.23,3.04-3.85,3.98-1.61.94-3.46,1.41-5.53,1.41ZM760.9,399.18c1.24,0,2.39-.31,3.46-.93s1.93-1.55,2.59-2.79.99-2.77.99-4.58-.32-3.38-.97-4.61c-.65-1.22-1.5-2.15-2.55-2.77-1.05-.62-2.21-.93-3.48-.93s-2.36.31-3.44.93-1.95,1.54-2.59,2.77c-.65,1.23-.97,2.76-.97,4.61s.32,3.34.97,4.58,1.5,2.17,2.55,2.79c1.05.62,2.2.93,3.44.93Z"/>
      <path class="cls-5" d="M785.65,402.3c-2.02,0-3.82-.48-5.4-1.43-1.59-.95-2.83-2.28-3.72-4s-1.34-3.71-1.34-5.99.44-4.31,1.32-6.01c.88-1.7,2.12-3.03,3.72-3.98,1.6-.95,3.44-1.43,5.51-1.43s3.95.48,5.45,1.43,2.64,2.2,3.44,3.74,1.19,3.24,1.19,5.08v.91c0,.32-.01.68-.04,1.08h-17.86v-2.81h14.31c-.09-1.99-.74-3.55-1.97-4.67s-2.76-1.69-4.6-1.69c-1.21,0-2.35.28-3.42.84-1.07.56-1.92,1.38-2.55,2.46-.63,1.08-.95,2.43-.95,4.04v1.21c0,1.79.32,3.29.97,4.5.65,1.21,1.5,2.12,2.55,2.72,1.05.61,2.18.91,3.39.91,1.53,0,2.79-.34,3.78-1.02.99-.68,1.72-1.61,2.18-2.79h3.59c-.38,1.33-.99,2.5-1.86,3.52-.86,1.02-1.94,1.84-3.22,2.44-1.28.6-2.78.91-4.48.91Z"/>
      <path class="cls-5" d="M808.16,402.3c-1.79,0-3.36-.3-4.71-.91-1.36-.61-2.43-1.45-3.22-2.53-.79-1.08-1.28-2.36-1.45-3.83h3.72c.14.75.45,1.44.91,2.08.46.63,1.09,1.15,1.88,1.54.79.39,1.77.58,2.92.58,1.01,0,1.84-.15,2.51-.45.66-.3,1.16-.71,1.49-1.23s.5-1.08.5-1.69c0-.89-.21-1.57-.63-2.03-.42-.46-1.03-.83-1.84-1.1-.81-.27-1.79-.51-2.94-.71-.95-.17-1.89-.4-2.81-.69-.92-.29-1.74-.67-2.46-1.15s-1.29-1.06-1.71-1.75c-.42-.69-.63-1.54-.63-2.55,0-1.24.32-2.34.97-3.31s1.56-1.72,2.75-2.27c1.18-.55,2.57-.82,4.15-.82,2.33,0,4.22.56,5.66,1.69,1.44,1.12,2.29,2.75,2.55,4.89h-3.59c-.14-1.1-.61-1.95-1.41-2.57-.79-.62-1.88-.93-3.26-.93s-2.38.27-3.09.82c-.71.55-1.06,1.27-1.06,2.16,0,.58.19,1.09.58,1.53.39.45.97.83,1.75,1.15s1.71.58,2.81.78c1.44.26,2.75.6,3.93,1.04,1.18.43,2.14,1.07,2.88,1.92.74.85,1.1,2.05,1.1,3.61,0,1.36-.34,2.54-1.02,3.55-.68,1.01-1.64,1.79-2.88,2.36s-2.7.84-4.37.84Z"/>
      <path class="cls-5" d="M822.65,401.99c-.72,0-1.32-.24-1.79-.71s-.71-1.06-.71-1.75.24-1.28.71-1.75,1.07-.71,1.79-.71,1.31.24,1.77.71c.46.48.69,1.06.69,1.75s-.23,1.28-.69,1.75c-.46.48-1.05.71-1.77.71Z"/>
    </g>
  </g>
</svg>